<svg width="325" height="371" viewBox="0 0 325 371" fill="none" xmlns="http://www.w3.org/2000/svg">
<path d="M28.5961 248.526C29.7161 248.58 31.1827 248.633 32.9961 248.686C34.8094 248.74 36.5961 248.766 38.3561 248.766C40.8627 248.766 43.2627 248.74 45.5561 248.686C47.8494 248.633 49.4761 248.606 50.4361 248.606C56.0361 248.606 60.2494 249.78 63.0761 252.126C65.9027 254.473 67.3161 257.486 67.3161 261.166C67.3161 263.033 66.9161 264.873 66.1161 266.686C65.3694 268.446 64.0894 270.073 62.2761 271.566C60.5161 273.006 58.1427 274.18 55.1561 275.086V275.246C59.3694 275.78 62.6494 276.793 64.9961 278.286C67.3961 279.726 69.0761 281.433 70.0361 283.406C70.9961 285.38 71.4761 287.46 71.4761 289.646C71.4761 292.686 70.7027 295.38 69.1561 297.726C67.6627 300.02 65.4761 301.833 62.5961 303.166C59.7161 304.5 56.2761 305.166 52.2761 305.166C51.1027 305.166 49.3427 305.14 46.9961 305.086C44.6494 304.98 41.8227 304.926 38.5161 304.926C36.6494 304.926 34.8094 304.953 32.9961 305.006C31.1827 305.006 29.7161 305.06 28.5961 305.166V303.566C30.4094 303.46 31.7694 303.246 32.6761 302.926C33.6361 302.606 34.2761 301.966 34.5961 301.006C34.9161 300.046 35.0761 298.606 35.0761 296.686V257.006C35.0761 255.033 34.9161 253.593 34.5961 252.686C34.2761 251.726 33.6361 251.086 32.6761 250.766C31.7694 250.393 30.4094 250.18 28.5961 250.126V248.526ZM48.4361 250.126C45.9827 250.126 44.3827 250.58 43.6361 251.486C42.8894 252.393 42.5161 254.233 42.5161 257.006V296.686C42.5161 298.553 42.6761 299.966 42.9961 300.926C43.3161 301.886 43.9027 302.526 44.7561 302.846C45.6094 303.166 46.8627 303.326 48.5161 303.326C53.7427 303.326 57.5294 302.126 59.8761 299.726C62.2761 297.273 63.4761 293.806 63.4761 289.326C63.4761 285.22 62.3561 282.046 60.1161 279.806C57.9294 277.566 54.3027 276.446 49.2361 276.446H40.9961C40.9961 276.446 40.9961 276.233 40.9961 275.806C40.9961 275.326 40.9961 275.086 40.9961 275.086H47.8761C51.0227 275.086 53.4494 274.5 55.1561 273.326C56.8627 272.1 58.0361 270.5 58.6761 268.526C59.3161 266.5 59.6361 264.34 59.6361 262.046C59.6361 258.1 58.7561 255.14 56.9961 253.166C55.2894 251.14 52.4361 250.126 48.4361 250.126ZM105.325 248.126L124.845 298.446C125.645 300.473 126.552 301.833 127.565 302.526C128.578 303.166 129.512 303.513 130.365 303.566V305.166C129.298 305.06 127.992 305.006 126.445 305.006C124.898 304.953 123.352 304.926 121.805 304.926C119.725 304.926 117.778 304.953 115.965 305.006C114.152 305.006 112.685 305.06 111.565 305.166V303.566C114.285 303.46 116.018 303.006 116.765 302.206C117.512 301.353 117.352 299.566 116.285 296.846L101.405 257.086L102.685 256.046L88.7649 292.206C87.9116 294.34 87.4049 296.153 87.2449 297.646C87.0849 299.086 87.2183 300.233 87.6449 301.086C88.1249 301.94 88.8983 302.553 89.9649 302.926C91.0849 303.3 92.4716 303.513 94.1249 303.566V305.166C92.6316 305.06 91.0583 305.006 89.4049 305.006C87.8049 304.953 86.3116 304.926 84.9249 304.926C83.5916 304.926 82.4449 304.953 81.4849 305.006C80.5783 305.006 79.7249 305.06 78.9249 305.166V303.566C79.9916 303.3 81.0849 302.686 82.2049 301.726C83.3249 300.713 84.3383 299.006 85.2449 296.606L104.045 248.126C104.258 248.126 104.472 248.126 104.685 248.126C104.898 248.126 105.112 248.126 105.325 248.126ZM115.085 282.126V283.726H91.2449L92.0449 282.126H115.085ZM170.065 305.166V303.566C171.878 303.46 173.238 303.246 174.145 302.926C175.105 302.606 175.745 301.966 176.065 301.006C176.385 300.046 176.545 298.606 176.545 296.686V257.006C176.545 255.033 176.385 253.593 176.065 252.686C175.745 251.726 175.105 251.086 174.145 250.766C173.238 250.393 171.878 250.18 170.065 250.126V248.526C171.292 248.58 172.838 248.633 174.705 248.686C176.572 248.74 178.412 248.766 180.225 248.766C182.305 248.766 184.252 248.74 186.065 248.686C187.878 248.633 189.345 248.58 190.465 248.526V250.126C188.652 250.18 187.265 250.393 186.305 250.766C185.398 251.086 184.785 251.726 184.465 252.686C184.145 253.593 183.985 255.033 183.985 257.006V296.686C183.985 298.606 184.145 300.046 184.465 301.006C184.785 301.966 185.398 302.606 186.305 302.926C187.265 303.246 188.652 303.46 190.465 303.566V305.166C189.345 305.06 187.878 305.006 186.065 305.006C184.252 304.953 182.305 304.926 180.225 304.926C178.412 304.926 176.572 304.953 174.705 305.006C172.838 305.006 171.292 305.06 170.065 305.166ZM136.625 305.166V303.566C138.438 303.46 139.798 303.246 140.705 302.926C141.665 302.606 142.305 301.966 142.625 301.006C142.945 300.046 143.105 298.606 143.105 296.686V257.006C143.105 255.033 142.945 253.593 142.625 252.686C142.305 251.726 141.665 251.086 140.705 250.766C139.798 250.393 138.438 250.18 136.625 250.126V248.526C137.745 248.58 139.212 248.633 141.025 248.686C142.838 248.74 144.785 248.766 146.865 248.766C148.732 248.766 150.572 248.74 152.385 248.686C154.252 248.633 155.798 248.58 157.025 248.526V250.126C155.212 250.18 153.825 250.393 152.865 250.766C151.958 251.086 151.345 251.726 151.025 252.686C150.705 253.593 150.545 255.033 150.545 257.006V296.686C150.545 298.606 150.705 300.046 151.025 301.006C151.345 301.966 151.958 302.606 152.865 302.926C153.825 303.246 155.212 303.46 157.025 303.566V305.166C155.798 305.06 154.252 305.006 152.385 305.006C150.572 304.953 148.732 304.926 146.865 304.926C144.785 304.926 142.838 304.953 141.025 305.006C139.212 305.006 137.745 305.06 136.625 305.166ZM147.745 277.486V275.886H179.345V277.486H147.745ZM227.819 247.406C232.886 247.406 237.312 248.553 241.099 250.846C244.939 253.14 247.899 256.446 249.979 260.766C252.112 265.033 253.179 270.233 253.179 276.366C253.179 282.34 252.086 287.566 249.899 292.046C247.766 296.526 244.779 300.02 240.939 302.526C237.099 305.033 232.699 306.286 227.739 306.286C222.672 306.286 218.219 305.14 214.379 302.846C210.592 300.553 207.632 297.246 205.499 292.926C203.419 288.606 202.379 283.406 202.379 277.326C202.379 271.353 203.472 266.126 205.659 261.646C207.846 257.166 210.832 253.673 214.619 251.166C218.459 248.66 222.859 247.406 227.819 247.406ZM227.499 248.846C224.032 248.846 221.019 250.046 218.459 252.446C215.899 254.846 213.899 258.153 212.459 262.366C211.072 266.58 210.379 271.46 210.379 277.006C210.379 282.66 211.152 287.593 212.699 291.806C214.299 295.966 216.432 299.193 219.099 301.486C221.819 303.726 224.806 304.846 228.059 304.846C231.526 304.846 234.539 303.646 237.099 301.246C239.659 298.846 241.632 295.54 243.019 291.326C244.459 287.06 245.179 282.18 245.179 276.686C245.179 270.98 244.379 266.046 242.779 261.886C241.232 257.726 239.126 254.526 236.459 252.286C233.792 249.993 230.806 248.846 227.499 248.846ZM265.123 248.526C266.243 248.58 267.709 248.633 269.523 248.686C271.336 248.74 273.123 248.766 274.883 248.766C277.389 248.766 279.789 248.74 282.083 248.686C284.376 248.633 286.003 248.606 286.963 248.606C291.283 248.606 294.856 249.22 297.683 250.446C300.563 251.673 302.696 253.353 304.083 255.486C305.523 257.566 306.243 259.913 306.243 262.526C306.243 264.126 305.923 265.833 305.283 267.646C304.643 269.46 303.523 271.166 301.923 272.766C300.376 274.366 298.243 275.7 295.523 276.766C292.803 277.78 289.363 278.286 285.203 278.286H277.523V276.686H284.403C288.189 276.686 291.069 276.1 293.043 274.926C295.069 273.7 296.429 272.1 297.123 270.126C297.869 268.1 298.243 265.86 298.243 263.406C298.243 259.193 297.229 255.94 295.203 253.646C293.229 251.3 289.816 250.126 284.963 250.126C282.509 250.126 280.909 250.58 280.163 251.486C279.416 252.393 279.043 254.233 279.043 257.006V296.686C279.043 298.606 279.203 300.046 279.523 301.006C279.843 301.966 280.456 302.606 281.363 302.926C282.323 303.246 283.709 303.46 285.523 303.566V305.166C284.296 305.06 282.749 305.006 280.883 305.006C279.069 304.953 277.229 304.926 275.363 304.926C273.283 304.926 271.336 304.953 269.523 305.006C267.709 305.006 266.243 305.06 265.123 305.166V303.566C266.936 303.46 268.296 303.246 269.203 302.926C270.163 302.606 270.803 301.966 271.123 301.006C271.443 300.046 271.603 298.606 271.603 296.686V257.006C271.603 255.033 271.443 253.593 271.123 252.686C270.803 251.726 270.163 251.086 269.203 250.766C268.296 250.393 266.936 250.18 265.123 250.126V248.526ZM277.843 276.926C280.723 277.033 282.989 277.166 284.643 277.326C286.296 277.433 287.629 277.54 288.643 277.646C289.709 277.753 290.723 277.886 291.683 278.046C295.256 278.633 297.816 279.726 299.363 281.326C300.963 282.873 302.136 285.3 302.883 288.606L304.883 296.766C305.416 299.113 305.949 300.82 306.483 301.886C307.069 302.9 307.949 303.38 309.123 303.326C310.029 303.273 310.776 302.98 311.363 302.446C312.003 301.913 312.669 301.193 313.363 300.286L314.563 301.166C313.443 302.82 312.269 304.1 311.043 305.006C309.869 305.86 308.189 306.286 306.003 306.286C304.029 306.286 302.296 305.7 300.803 304.526C299.309 303.353 298.189 301.06 297.443 297.646L295.683 289.646C295.203 287.353 294.643 285.38 294.003 283.726C293.416 282.02 292.563 280.686 291.443 279.726C290.376 278.766 288.776 278.286 286.643 278.286H278.003L277.843 276.926ZM86.0807 313.966V315.566C85.0674 315.673 84.134 316.126 83.2807 316.926C82.4274 317.726 81.6274 319.14 80.8807 321.166L67.7607 355.566C67.5474 355.566 67.334 355.566 67.1207 355.566C66.9074 355.566 66.6674 355.566 66.4007 355.566L51.6807 320.126C50.8274 318.046 49.974 316.793 49.1207 316.366C48.3207 315.886 47.6274 315.646 47.0407 315.646V313.966C48.1074 314.02 49.2007 314.1 50.3207 314.206C51.494 314.26 52.7474 314.286 54.0807 314.286C55.734 314.286 57.4674 314.26 59.2807 314.206C61.1474 314.153 62.8807 314.073 64.4807 313.966V315.646C63.1474 315.646 61.9474 315.753 60.8807 315.966C59.8674 316.126 59.2007 316.633 58.8807 317.486C58.614 318.34 58.8807 319.806 59.6807 321.886L69.6807 346.606L69.2007 347.006L78.3207 323.086C79.014 321.326 79.2807 319.94 79.1207 318.926C79.014 317.86 78.4807 317.06 77.5207 316.526C76.614 315.993 75.2007 315.673 73.2807 315.566V313.966C74.2407 314.02 75.0674 314.073 75.7607 314.126C76.454 314.126 77.1207 314.153 77.7607 314.206C78.454 314.206 79.2007 314.206 80.0007 314.206C81.2274 314.206 82.3207 314.18 83.2807 314.126C84.294 314.073 85.2274 314.02 86.0807 313.966ZM106.11 312.846C109.524 312.846 112.59 313.593 115.31 315.086C118.03 316.58 120.19 318.926 121.79 322.126C123.444 325.326 124.27 329.486 124.27 334.606C124.27 339.726 123.444 343.886 121.79 347.086C120.19 350.233 118.03 352.553 115.31 354.046C112.59 355.54 109.524 356.286 106.11 356.286C102.75 356.286 99.6835 355.54 96.9102 354.046C94.1902 352.553 92.0035 350.233 90.3502 347.086C88.7502 343.886 87.9502 339.726 87.9502 334.606C87.9502 329.486 88.7502 325.326 90.3502 322.126C92.0035 318.926 94.1902 316.58 96.9102 315.086C99.6835 313.593 102.75 312.846 106.11 312.846ZM106.11 314.446C103.07 314.446 100.564 316.02 98.5902 319.166C96.6702 322.313 95.7102 327.46 95.7102 334.606C95.7102 341.753 96.6702 346.9 98.5902 350.046C100.564 353.14 103.07 354.686 106.11 354.686C109.15 354.686 111.63 353.14 113.55 350.046C115.524 346.9 116.51 341.753 116.51 334.606C116.51 327.46 115.524 322.313 113.55 319.166C111.63 316.02 109.15 314.446 106.11 314.446ZM165.387 313.966V315.566C164.374 315.673 163.441 316.126 162.587 316.926C161.734 317.726 160.934 319.14 160.187 321.166L147.067 355.566H145.707L130.987 320.126C129.974 318.046 128.961 316.793 127.947 316.366C126.987 315.886 126.187 315.646 125.547 315.646V313.966C126.721 314.126 127.947 314.26 129.227 314.366C130.507 314.42 131.894 314.446 133.387 314.446C135.041 314.446 136.774 314.393 138.587 314.286C140.454 314.18 142.187 314.073 143.787 313.966V315.646C142.454 315.646 141.254 315.753 140.187 315.966C139.174 316.126 138.534 316.686 138.267 317.646C138.001 318.553 138.321 320.126 139.227 322.366L149.067 346.766L148.587 346.926L157.707 323.086C158.401 321.326 158.667 319.94 158.507 318.926C158.401 317.86 157.867 317.06 156.907 316.526C155.947 315.993 154.507 315.673 152.587 315.566V313.966C153.547 314.02 154.374 314.073 155.067 314.126C155.761 314.126 156.427 314.153 157.067 314.206C157.761 314.206 158.507 314.206 159.307 314.206C160.534 314.206 161.627 314.18 162.587 314.126C163.601 314.073 164.534 314.02 165.387 313.966ZM147.067 355.566L144.347 362.526C143.814 363.86 143.254 364.98 142.667 365.886C142.134 366.793 141.547 367.54 140.907 368.126C140.054 368.926 139.041 369.46 137.867 369.726C136.694 370.046 135.627 370.206 134.667 370.206C133.654 370.206 132.721 370.02 131.867 369.646C131.067 369.273 130.427 368.713 129.947 367.966C129.467 367.273 129.227 366.42 129.227 365.406C129.227 364.126 129.601 363.086 130.347 362.286C131.094 361.54 132.134 361.166 133.467 361.166C134.587 361.166 135.547 361.486 136.347 362.126C137.147 362.766 137.547 363.7 137.547 364.926C137.547 365.833 137.334 366.58 136.907 367.166C136.481 367.753 135.974 368.206 135.387 368.526C135.494 368.58 135.574 368.606 135.627 368.606C135.734 368.606 135.814 368.606 135.867 368.606C137.307 368.606 138.587 368.1 139.707 367.086C140.827 366.126 141.814 364.553 142.667 362.366L145.547 354.926L147.067 355.566ZM177.943 355.726C175.756 355.726 173.863 355.326 172.263 354.526C170.663 353.673 169.436 352.5 168.583 351.006C167.783 349.513 167.383 347.78 167.383 345.806C167.383 343.46 167.916 341.54 168.983 340.046C170.103 338.553 171.516 337.353 173.223 336.446C174.93 335.54 176.716 334.793 178.583 334.206C180.503 333.566 182.316 332.98 184.023 332.446C185.73 331.86 187.116 331.193 188.183 330.446C189.303 329.7 189.863 328.713 189.863 327.486V322.526C189.863 320.286 189.516 318.58 188.823 317.406C188.183 316.233 187.303 315.46 186.183 315.086C185.063 314.66 183.81 314.446 182.423 314.446C181.09 314.446 179.65 314.633 178.103 315.006C176.61 315.38 175.41 316.153 174.503 317.326C175.516 317.54 176.396 318.073 177.143 318.926C177.89 319.78 178.263 320.873 178.263 322.206C178.263 323.54 177.836 324.606 176.983 325.406C176.13 326.153 175.036 326.526 173.703 326.526C172.156 326.526 171.01 326.046 170.263 325.086C169.57 324.073 169.223 322.953 169.223 321.726C169.223 320.34 169.57 319.22 170.263 318.366C170.956 317.513 171.836 316.713 172.903 315.966C174.13 315.113 175.703 314.393 177.623 313.806C179.596 313.166 181.81 312.846 184.263 312.846C186.45 312.846 188.316 313.113 189.863 313.646C191.41 314.126 192.69 314.846 193.703 315.806C195.09 317.086 195.996 318.66 196.423 320.526C196.85 322.34 197.063 324.526 197.063 327.086V349.326C197.063 350.66 197.25 351.62 197.623 352.206C198.05 352.793 198.69 353.086 199.543 353.086C200.13 353.086 200.69 352.953 201.223 352.686C201.756 352.42 202.396 351.993 203.143 351.406L204.023 352.766C202.903 353.62 201.836 354.34 200.823 354.926C199.81 355.46 198.45 355.726 196.743 355.726C195.196 355.726 193.916 355.46 192.903 354.926C191.89 354.393 191.116 353.62 190.583 352.606C190.103 351.54 189.863 350.206 189.863 348.606C188.423 351.006 186.69 352.793 184.663 353.966C182.69 355.14 180.45 355.726 177.943 355.726ZM180.823 352.526C182.583 352.526 184.21 352.02 185.703 351.006C187.25 349.993 188.636 348.473 189.863 346.446V330.766C189.223 331.673 188.29 332.446 187.063 333.086C185.836 333.673 184.503 334.286 183.063 334.926C181.623 335.513 180.236 336.233 178.903 337.086C177.623 337.886 176.556 338.953 175.703 340.286C174.85 341.62 174.423 343.353 174.423 345.486C174.423 347.62 174.983 349.326 176.103 350.606C177.276 351.886 178.85 352.526 180.823 352.526ZM219.699 370.206C216.872 370.206 214.205 369.913 211.699 369.326C209.192 368.74 207.165 367.806 205.619 366.526C204.125 365.3 203.379 363.726 203.379 361.806C203.379 359.94 204.125 358.34 205.619 357.006C207.112 355.673 209.139 354.66 211.699 353.966L212.179 355.246C211.005 355.62 210.072 356.366 209.379 357.486C208.685 358.606 208.339 359.86 208.339 361.246C208.339 363.7 209.459 365.566 211.699 366.846C213.992 368.18 216.952 368.846 220.579 368.846C222.979 368.846 225.325 368.526 227.619 367.886C229.912 367.3 231.805 366.286 233.299 364.846C234.792 363.406 235.539 361.513 235.539 359.166C235.539 357.406 234.899 355.966 233.619 354.846C232.392 353.673 229.939 353.086 226.259 353.086H220.339C218.632 353.086 216.979 352.953 215.379 352.686C213.779 352.42 212.472 351.86 211.459 351.006C210.445 350.153 209.939 348.846 209.939 347.086C209.939 345.273 210.685 343.54 212.179 341.886C213.672 340.18 216.419 338.446 220.419 336.686L221.379 337.406C219.565 338.366 217.992 339.353 216.659 340.366C215.325 341.326 214.659 342.473 214.659 343.806C214.659 345.513 215.939 346.366 218.499 346.366H228.499C230.739 346.366 232.792 346.686 234.659 347.326C236.579 347.966 238.125 348.98 239.299 350.366C240.472 351.753 241.059 353.566 241.059 355.806C241.059 358.313 240.259 360.66 238.659 362.846C237.059 365.033 234.659 366.793 231.459 368.126C228.312 369.513 224.392 370.206 219.699 370.206ZM220.099 338.126C217.485 338.126 215.112 337.7 212.979 336.846C210.845 335.94 209.165 334.553 207.939 332.686C206.712 330.82 206.099 328.42 206.099 325.486C206.099 322.553 206.712 320.153 207.939 318.286C209.165 316.42 210.845 315.06 212.979 314.206C215.112 313.3 217.485 312.846 220.099 312.846C222.765 312.846 225.139 313.3 227.219 314.206C229.352 315.06 231.032 316.42 232.259 318.286C233.485 320.153 234.099 322.553 234.099 325.486C234.099 328.42 233.485 330.82 232.259 332.686C231.032 334.553 229.352 335.94 227.219 336.846C225.139 337.7 222.765 338.126 220.099 338.126ZM220.099 336.686C222.125 336.686 223.699 335.886 224.819 334.286C225.992 332.686 226.579 329.753 226.579 325.486C226.579 321.22 225.992 318.286 224.819 316.686C223.699 315.086 222.125 314.286 220.099 314.286C218.125 314.286 216.552 315.086 215.379 316.686C214.205 318.286 213.619 321.22 213.619 325.486C213.619 329.753 214.205 332.686 215.379 334.286C216.552 335.886 218.125 336.686 220.099 336.686ZM231.619 319.486L230.179 318.926C230.925 317.113 232.205 315.513 234.019 314.126C235.832 312.74 237.725 312.046 239.699 312.046C241.085 312.046 242.205 312.446 243.059 313.246C243.912 313.993 244.339 315.14 244.339 316.686C244.339 318.34 243.885 319.513 242.979 320.206C242.125 320.846 241.245 321.166 240.339 321.166C239.539 321.166 238.792 320.9 238.099 320.366C237.405 319.78 237.005 318.873 236.899 317.646C236.792 316.42 237.165 314.846 238.019 312.926L239.059 313.166C236.819 314.02 235.219 314.926 234.259 315.886C233.299 316.793 232.419 317.993 231.619 319.486ZM264.455 312.846C269.148 312.846 272.802 314.286 275.415 317.166C278.082 319.993 279.415 324.42 279.415 330.446H251.175L251.095 328.926H271.735C271.842 326.313 271.628 323.913 271.095 321.726C270.562 319.486 269.708 317.7 268.535 316.366C267.415 315.033 265.948 314.366 264.135 314.366C261.682 314.366 259.495 315.593 257.575 318.046C255.708 320.5 254.588 324.393 254.215 329.726L254.455 330.046C254.348 330.846 254.268 331.726 254.215 332.686C254.162 333.646 254.135 334.606 254.135 335.566C254.135 339.193 254.722 342.313 255.895 344.926C257.068 347.54 258.588 349.54 260.455 350.926C262.375 352.26 264.348 352.926 266.375 352.926C267.975 352.926 269.495 352.686 270.935 352.206C272.375 351.673 273.708 350.82 274.935 349.646C276.162 348.473 277.228 346.9 278.135 344.926L279.735 345.566C279.148 347.326 278.188 349.033 276.855 350.686C275.522 352.34 273.842 353.7 271.815 354.766C269.788 355.78 267.442 356.286 264.775 356.286C260.935 356.286 257.628 355.406 254.855 353.646C252.135 351.886 250.028 349.46 248.535 346.366C247.095 343.22 246.375 339.62 246.375 335.566C246.375 330.873 247.122 326.846 248.615 323.486C250.108 320.073 252.215 317.46 254.935 315.646C257.655 313.78 260.828 312.846 264.455 312.846Z" fill="white"/>
<path d="M163.391 2.15409C175.394 2.82558 186.962 3.14344 198.448 4.28701C205.849 5.02385 212.043 9.02101 213.091 20.2028C214.32 33.3195 215.68 46.4267 216.687 59.5608C217.656 72.191 218.447 84.842 218.962 97.4983C219.864 119.663 220.671 141.835 221.192 164.011C221.782 189.099 222.055 214.195 222.363 239.288C222.42 243.906 221.983 248.53 220.855 253.633C220.239 252.712 219.171 251.835 219.076 250.863C217.391 233.648 215.847 216.419 214.227 199.197C211.963 175.129 209.603 151.07 207.404 126.995C206.479 116.862 205.982 106.689 205.078 96.5536C203.239 75.9301 201.245 55.3204 199.338 34.7028C198.869 29.6375 198.492 24.5639 198.045 19.1655C191.372 19.1655 184.911 19.2304 178.453 19.1544C147.735 18.7932 117.018 18.2342 86.2993 18.1206C78.677 18.0924 71.029 19.3098 63.4438 20.3327C62.1026 20.5136 60.2488 22.3924 59.9374 23.7801C58.4011 30.627 57.1816 37.5531 56.0794 44.4877C54.2027 56.2946 52.464 68.1238 50.7323 79.9531C49.6889 87.0811 48.7684 94.2271 47.7573 101.623C71.6378 97.2194 94.795 89.4551 118.485 99.2343C119.299 99.5701 119.867 100.5 121.252 101.826C110.619 101.826 101.153 101.863 91.6879 101.816C80.2919 101.759 69.2472 103.909 59.0142 108.703C54.238 110.941 49.612 114.604 46.432 118.776C44.1134 121.817 43.9405 126.703 43.3928 130.844C42.0776 140.788 41.3189 150.807 39.9407 160.741C38.1444 173.689 35.9664 186.584 33.8742 200.006C48.2359 201.018 62.1588 201.999 76.0817 202.981C76.0521 203.475 76.0226 203.969 75.9931 204.463C65.3613 207.645 54.4979 208.87 43.3716 208.481C36.1773 208.229 32.4733 212.587 31.8306 219.705C30.8909 230.113 29.1579 240.447 27.8623 250.826C26.8493 258.94 26.0377 267.08 25.0455 275.197C23.735 285.919 22.1978 296.615 21.0139 307.35C19.8964 317.484 19.1513 327.658 18.154 337.806C17.8461 340.94 17.2485 344.045 16.7834 347.163C16.2613 347.171 15.7392 347.179 15.2171 347.187C15.117 345.776 14.8609 344.357 14.9413 342.957C15.5894 331.671 16.2616 320.387 17.0027 309.107C18.0045 293.858 19.1091 278.616 20.1026 263.366C20.7899 252.817 21.3609 242.26 21.9891 231.707C22.9907 214.881 23.7275 198.033 25.0703 181.234C26.6784 161.116 28.8813 141.047 30.677 120.943C31.6151 110.44 31.9349 99.8762 33.0687 89.3977C34.5341 75.8552 36.359 62.3444 38.366 48.8701C39.6803 40.0462 41.4896 31.2905 43.2581 22.5408C46.2049 7.96125 51.4174 5.83061 65.9037 2.99325C85.4154 -0.828397 105.16 -2.0355e-05 124.842 0.253833C137.541 0.417628 150.229 1.48699 163.391 2.15409Z" fill="#FAFAFA"/>
<path d="M261.151 69.1568C261.727 62.3002 267.616 57.3056 274.745 56.8965C282.236 56.4667 288.889 58.6931 295.133 62.5717C296.229 63.2525 297.349 63.8947 298.749 64.7277C300.98 58.4917 300.728 51.5868 306.889 47.3921C312.315 43.6981 317.618 40.836 324.394 42.9543C324.438 42.8889 324.511 42.78 324.585 42.671C324.42 42.643 324.188 42.53 324.102 42.5992C320.509 45.5055 317.009 48.5321 313.333 51.3282C304.314 58.1892 302.005 66.252 306.039 77.1254C306.298 77.826 306.072 78.707 306.072 80.5727C304.667 79.0122 303.532 78.2673 303.143 77.2397C299.036 66.3879 284.479 60.6102 272.89 64.7836C269.076 66.1572 265.323 67.7015 261.151 69.1568Z" fill="#F5F5F5"/>
</svg>
